<svg width="371" height="27" viewBox="0 0 371 27" fill="none" xmlns="http://www.w3.org/2000/svg">
<path d="M12.0231 26.36C10.5591 26.36 9.31109 25.964 8.27909 25.172C7.24709 24.38 6.50309 23.336 6.04709 22.04L5.83109 26H0.467088V0.368H6.58709V11.096C7.06709 10.064 7.77509 9.236 8.71109 8.612C9.67109 7.964 10.8471 7.64 12.2391 7.64C13.6311 7.64 14.8671 8.012 15.9471 8.756C17.0271 9.5 17.8791 10.58 18.5031 11.996C19.1271 13.388 19.4391 15.08 19.4391 17.072C19.4391 20 18.7551 22.28 17.3871 23.912C16.0191 25.544 14.2311 26.36 12.0231 26.36ZM9.89909 21.86C10.9551 21.86 11.7831 21.476 12.3831 20.708C12.9831 19.916 13.2831 18.68 13.2831 17C13.2831 15.32 12.9831 14.096 12.3831 13.328C11.7831 12.536 10.9551 12.14 9.89909 12.14C8.86709 12.14 8.05109 12.572 7.45109 13.436C6.87509 14.3 6.58709 15.5 6.58709 17.036C6.58709 18.596 6.88709 19.796 7.48709 20.636C8.08709 21.452 8.89109 21.86 9.89909 21.86ZM32.3656 14.588C32.3656 13.748 32.1256 13.088 31.6456 12.608C31.1896 12.104 30.5656 11.852 29.7736 11.852C28.9816 11.852 28.2976 12.056 27.7216 12.464C27.1696 12.848 26.7856 13.544 26.5696 14.552L21.3856 13.328C21.7216 11.6 22.6096 10.22 24.0496 9.188C25.4896 8.156 27.5176 7.64 30.1336 7.64C32.7736 7.64 34.8136 8.228 36.2536 9.404C37.7176 10.556 38.4496 12.248 38.4496 14.48V21.068C38.4496 22.004 38.8696 22.472 39.7096 22.472C40.1416 22.472 40.4896 22.424 40.7536 22.328L40.3936 25.82C39.6736 26.156 38.7976 26.324 37.7656 26.324C36.6376 26.324 35.6656 26.108 34.8496 25.676C34.0336 25.22 33.4816 24.536 33.1936 23.624C32.6896 24.56 31.8856 25.256 30.7816 25.712C29.7016 26.144 28.5496 26.36 27.3256 26.36C25.4776 26.36 24.0016 25.94 22.8976 25.1C21.8176 24.236 21.2776 23 21.2776 21.392C21.2776 20.096 21.6616 19.028 22.4296 18.188C23.2216 17.324 24.4576 16.724 26.1376 16.388L32.3656 15.092V14.588ZM27.3256 20.816C27.3256 21.344 27.5176 21.74 27.9016 22.004C28.2856 22.268 28.7416 22.4 29.2696 22.4C30.0856 22.4 30.8056 22.16 31.4296 21.68C32.0536 21.176 32.3656 20.396 32.3656 19.34V18.332L29.4496 18.944C28.7296 19.088 28.1896 19.304 27.8296 19.592C27.4936 19.856 27.3256 20.264 27.3256 20.816ZM42.6293 26V8H48.0293L48.2813 11.888C48.7133 10.568 49.3733 9.536 50.2613 8.792C51.1733 8.024 52.3373 7.64 53.7533 7.64C54.2093 7.64 54.5933 7.688 54.9053 7.784C55.2413 7.856 55.5053 7.94 55.6973 8.036L55.0853 13.076C54.8453 13.004 54.5333 12.932 54.1493 12.86C53.7893 12.788 53.3453 12.752 52.8173 12.752C51.7133 12.752 50.7533 13.1 49.9373 13.796C49.1453 14.492 48.7493 15.536 48.7493 16.928V26H42.6293ZM69.114 26.36C67.65 26.36 66.402 25.964 65.37 25.172C64.338 24.38 63.594 23.336 63.138 22.04L62.922 26H57.558V0.368H63.678V11.096C64.158 10.064 64.866 9.236 65.802 8.612C66.762 7.964 67.938 7.64 69.33 7.64C70.722 7.64 71.958 8.012 73.038 8.756C74.118 9.5 74.97 10.58 75.594 11.996C76.218 13.388 76.53 15.08 76.53 17.072C76.53 20 75.846 22.28 74.478 23.912C73.11 25.544 71.322 26.36 69.114 26.36ZM66.99 21.86C68.046 21.86 68.874 21.476 69.474 20.708C70.074 19.916 70.374 18.68 70.374 17C70.374 15.32 70.074 14.096 69.474 13.328C68.874 12.536 68.046 12.14 66.99 12.14C65.958 12.14 65.142 12.572 64.542 13.436C63.966 14.3 63.678 15.5 63.678 17.036C63.678 18.596 63.978 19.796 64.578 20.636C65.178 21.452 65.982 21.86 66.99 21.86ZM89.4566 14.588C89.4566 13.748 89.2166 13.088 88.7366 12.608C88.2806 12.104 87.6566 11.852 86.8646 11.852C86.0726 11.852 85.3886 12.056 84.8126 12.464C84.2606 12.848 83.8766 13.544 83.6606 14.552L78.4766 13.328C78.8126 11.6 79.7006 10.22 81.1406 9.188C82.5806 8.156 84.6086 7.64 87.2246 7.64C89.8646 7.64 91.9046 8.228 93.3446 9.404C94.8086 10.556 95.5406 12.248 95.5406 14.48V21.068C95.5406 22.004 95.9606 22.472 96.8006 22.472C97.2326 22.472 97.5806 22.424 97.8446 22.328L97.4846 25.82C96.7646 26.156 95.8886 26.324 94.8566 26.324C93.7286 26.324 92.7566 26.108 91.9406 25.676C91.1246 25.22 90.5726 24.536 90.2846 23.624C89.7806 24.56 88.9766 25.256 87.8726 25.712C86.7926 26.144 85.6406 26.36 84.4166 26.36C82.5686 26.36 81.0926 25.94 79.9886 25.1C78.9086 24.236 78.3686 23 78.3686 21.392C78.3686 20.096 78.7526 19.028 79.5206 18.188C80.3126 17.324 81.5486 16.724 83.2286 16.388L89.4566 15.092V14.588ZM84.4166 20.816C84.4166 21.344 84.6086 21.74 84.9926 22.004C85.3766 22.268 85.8326 22.4 86.3606 22.4C87.1766 22.4 87.8966 22.16 88.5206 21.68C89.1446 21.176 89.4566 20.396 89.4566 19.34V18.332L86.5406 18.944C85.8206 19.088 85.2806 19.304 84.9206 19.592C84.5846 19.856 84.4166 20.264 84.4166 20.816ZM99.7202 26V8H105.12L105.372 11.888C105.804 10.568 106.464 9.536 107.352 8.792C108.264 8.024 109.428 7.64 110.844 7.64C111.3 7.64 111.684 7.688 111.996 7.784C112.332 7.856 112.596 7.94 112.788 8.036L112.176 13.076C111.936 13.004 111.624 12.932 111.24 12.86C110.88 12.788 110.436 12.752 109.908 12.752C108.804 12.752 107.844 13.1 107.028 13.796C106.236 14.492 105.84 15.536 105.84 16.928V26H99.7202ZM124.482 14.588C124.482 13.748 124.242 13.088 123.762 12.608C123.306 12.104 122.682 11.852 121.89 11.852C121.098 11.852 120.414 12.056 119.838 12.464C119.286 12.848 118.902 13.544 118.686 14.552L113.502 13.328C113.838 11.6 114.726 10.22 116.166 9.188C117.606 8.156 119.634 7.64 122.25 7.64C124.89 7.64 126.93 8.228 128.37 9.404C129.834 10.556 130.566 12.248 130.566 14.48V21.068C130.566 22.004 130.986 22.472 131.826 22.472C132.258 22.472 132.606 22.424 132.87 22.328L132.51 25.82C131.79 26.156 130.914 26.324 129.882 26.324C128.754 26.324 127.782 26.108 126.966 25.676C126.15 25.22 125.598 24.536 125.31 23.624C124.806 24.56 124.002 25.256 122.898 25.712C121.818 26.144 120.666 26.36 119.442 26.36C117.594 26.36 116.118 25.94 115.014 25.1C113.934 24.236 113.394 23 113.394 21.392C113.394 20.096 113.778 19.028 114.546 18.188C115.338 17.324 116.574 16.724 118.254 16.388L124.482 15.092V14.588ZM119.442 20.816C119.442 21.344 119.634 21.74 120.018 22.004C120.402 22.268 120.858 22.4 121.386 22.4C122.202 22.4 122.922 22.16 123.546 21.68C124.17 21.176 124.482 20.396 124.482 19.34V18.332L121.566 18.944C120.846 19.088 120.306 19.304 119.946 19.592C119.61 19.856 119.442 20.264 119.442 20.816ZM152.722 7.64C154.546 7.64 156.058 7.904 157.258 8.432C158.482 8.96 159.43 9.644 160.102 10.484C160.774 11.324 161.206 12.236 161.398 13.22L155.746 15.092C155.602 14.06 155.302 13.292 154.846 12.788C154.39 12.26 153.742 11.996 152.902 11.996C151.75 11.996 150.874 12.404 150.274 13.22C149.698 14.036 149.41 15.32 149.41 17.072C149.41 18.848 149.722 20.12 150.346 20.888C150.994 21.632 151.858 22.004 152.938 22.004C154.642 22.004 155.638 21.032 155.926 19.088L161.434 20.852C161.17 22.412 160.294 23.72 158.806 24.776C157.342 25.832 155.398 26.36 152.974 26.36C150.022 26.36 147.658 25.544 145.882 23.912C144.13 22.256 143.254 19.952 143.254 17C143.254 15.032 143.65 13.352 144.442 11.96C145.258 10.568 146.374 9.5 147.79 8.756C149.206 8.012 150.85 7.64 152.722 7.64ZM174.12 14.588C174.12 13.748 173.88 13.088 173.4 12.608C172.944 12.104 172.32 11.852 171.528 11.852C170.736 11.852 170.052 12.056 169.476 12.464C168.924 12.848 168.54 13.544 168.324 14.552L163.14 13.328C163.476 11.6 164.364 10.22 165.804 9.188C167.244 8.156 169.272 7.64 171.888 7.64C174.528 7.64 176.568 8.228 178.008 9.404C179.472 10.556 180.204 12.248 180.204 14.48V21.068C180.204 22.004 180.624 22.472 181.464 22.472C181.896 22.472 182.244 22.424 182.508 22.328L182.148 25.82C181.428 26.156 180.552 26.324 179.52 26.324C178.392 26.324 177.42 26.108 176.604 25.676C175.788 25.22 175.236 24.536 174.948 23.624C174.444 24.56 173.64 25.256 172.536 25.712C171.456 26.144 170.304 26.36 169.08 26.36C167.232 26.36 165.756 25.94 164.652 25.1C163.572 24.236 163.032 23 163.032 21.392C163.032 20.096 163.416 19.028 164.184 18.188C164.976 17.324 166.212 16.724 167.892 16.388L174.12 15.092V14.588ZM169.08 20.816C169.08 21.344 169.272 21.74 169.656 22.004C170.04 22.268 170.496 22.4 171.024 22.4C171.84 22.4 172.56 22.16 173.184 21.68C173.808 21.176 174.12 20.396 174.12 19.34V18.332L171.204 18.944C170.484 19.088 169.944 19.304 169.584 19.592C169.248 19.856 169.08 20.264 169.08 20.816ZM184.384 26V8H189.784L190.036 11.888C190.468 10.568 191.128 9.536 192.016 8.792C192.928 8.024 194.092 7.64 195.508 7.64C195.964 7.64 196.348 7.688 196.66 7.784C196.996 7.856 197.26 7.94 197.452 8.036L196.84 13.076C196.6 13.004 196.288 12.932 195.904 12.86C195.544 12.788 195.1 12.752 194.572 12.752C193.468 12.752 192.508 13.1 191.691 13.796C190.9 14.492 190.504 15.536 190.504 16.928V26H184.384ZM205.725 26.36C203.493 26.36 201.693 25.544 200.325 23.912C198.981 22.28 198.309 20 198.309 17.072C198.309 15.056 198.621 13.352 199.245 11.96C199.893 10.544 200.781 9.476 201.909 8.756C203.061 8.012 204.381 7.64 205.869 7.64C207.141 7.64 208.221 7.952 209.109 8.576C210.021 9.2 210.705 10.028 211.161 11.06V0.368H217.281V26H211.809L211.593 22.472C211.089 23.672 210.321 24.62 209.289 25.316C208.281 26.012 207.093 26.36 205.725 26.36ZM207.849 21.86C208.857 21.86 209.661 21.44 210.261 20.6C210.861 19.76 211.161 18.524 211.161 16.892C211.161 15.38 210.873 14.216 210.297 13.4C209.721 12.56 208.917 12.14 207.885 12.14C206.829 12.14 205.989 12.536 205.365 13.328C204.765 14.096 204.465 15.32 204.465 17C204.465 18.68 204.765 19.916 205.365 20.708C205.965 21.476 206.793 21.86 207.849 21.86ZM229.7 7.64C231.596 7.64 233.252 8.012 234.668 8.756C236.108 9.5 237.224 10.568 238.016 11.96C238.832 13.352 239.24 15.032 239.24 17C239.24 18.968 238.832 20.648 238.016 22.04C237.224 23.432 236.108 24.5 234.668 25.244C233.252 25.988 231.596 26.36 229.7 26.36C227.828 26.36 226.172 25.988 224.732 25.244C223.316 24.5 222.2 23.432 221.384 22.04C220.592 20.648 220.196 18.968 220.196 17C220.196 15.032 220.592 13.352 221.384 11.96C222.2 10.568 223.316 9.5 224.732 8.756C226.172 8.012 227.828 7.64 229.7 7.64ZM229.7 11.996C228.644 11.996 227.816 12.392 227.216 13.184C226.64 13.952 226.352 15.224 226.352 17C226.352 18.752 226.64 20.024 227.216 20.816C227.816 21.608 228.644 22.004 229.7 22.004C230.78 22.004 231.608 21.608 232.184 20.816C232.784 20.024 233.084 18.752 233.084 17C233.084 15.224 232.784 13.952 232.184 13.184C231.608 12.392 230.78 11.996 229.7 11.996ZM249.702 26.36C247.902 26.36 246.234 26.072 244.698 25.496C243.162 24.896 241.878 24.044 240.846 22.94L243.726 19.556C244.326 20.324 245.118 20.972 246.102 21.5C247.11 22.004 248.226 22.256 249.45 22.256C250.194 22.256 250.806 22.148 251.286 21.932C251.766 21.716 252.006 21.38 252.006 20.924C252.006 20.612 251.886 20.348 251.646 20.132C251.406 19.916 250.926 19.736 250.206 19.592L247.686 19.088C245.43 18.632 243.822 17.96 242.862 17.072C241.926 16.16 241.458 14.972 241.458 13.508C241.458 12.524 241.758 11.588 242.358 10.7C242.958 9.812 243.882 9.08 245.13 8.504C246.378 7.928 247.974 7.64 249.918 7.64C253.638 7.64 256.35 8.672 258.054 10.736L255.138 14.048C254.562 13.328 253.818 12.764 252.906 12.356C251.994 11.948 251.082 11.744 250.17 11.744C248.418 11.744 247.542 12.188 247.542 13.076C247.542 13.388 247.686 13.664 247.974 13.904C248.286 14.144 248.85 14.336 249.666 14.48L252.942 15.128C254.79 15.488 256.122 16.112 256.938 17C257.754 17.864 258.162 18.92 258.162 20.168C258.162 21.92 257.454 23.396 256.038 24.596C254.646 25.772 252.534 26.36 249.702 26.36ZM269.26 7.64C271.156 7.64 272.812 8.012 274.228 8.756C275.668 9.5 276.784 10.568 277.576 11.96C278.392 13.352 278.8 15.032 278.8 17C278.8 18.968 278.392 20.648 277.576 22.04C276.784 23.432 275.668 24.5 274.228 25.244C272.812 25.988 271.156 26.36 269.26 26.36C267.388 26.36 265.732 25.988 264.292 25.244C262.876 24.5 261.76 23.432 260.944 22.04C260.152 20.648 259.756 18.968 259.756 17C259.756 15.032 260.152 13.352 260.944 11.96C261.76 10.568 262.876 9.5 264.292 8.756C265.732 8.012 267.388 7.64 269.26 7.64ZM269.26 11.996C268.204 11.996 267.376 12.392 266.776 13.184C266.2 13.952 265.912 15.224 265.912 17C265.912 18.752 266.2 20.024 266.776 20.816C267.376 21.608 268.204 22.004 269.26 22.004C270.34 22.004 271.168 21.608 271.744 20.816C272.344 20.024 272.644 18.752 272.644 17C272.644 15.224 272.344 13.952 271.744 13.184C271.168 12.392 270.34 11.996 269.26 11.996ZM291.464 26V8H296.936L297.116 11.636C297.668 10.316 298.472 9.32 299.528 8.648C300.584 7.976 301.832 7.64 303.272 7.64C305.12 7.64 306.62 8.18 307.772 9.26C308.924 10.34 309.5 11.924 309.5 14.012V26H303.38V15.632C303.38 14.384 303.14 13.52 302.66 13.04C302.18 12.56 301.568 12.32 300.824 12.32C299.936 12.32 299.168 12.632 298.52 13.256C297.896 13.88 297.584 14.948 297.584 16.46V26H291.464ZM323.292 14.588C323.292 13.748 323.052 13.088 322.572 12.608C322.116 12.104 321.492 11.852 320.7 11.852C319.908 11.852 319.224 12.056 318.648 12.464C318.096 12.848 317.712 13.544 317.496 14.552L312.312 13.328C312.648 11.6 313.536 10.22 314.976 9.188C316.416 8.156 318.444 7.64 321.06 7.64C323.7 7.64 325.74 8.228 327.18 9.404C328.644 10.556 329.376 12.248 329.376 14.48V21.068C329.376 22.004 329.796 22.472 330.636 22.472C331.068 22.472 331.416 22.424 331.68 22.328L331.32 25.82C330.6 26.156 329.724 26.324 328.692 26.324C327.564 26.324 326.592 26.108 325.776 25.676C324.96 25.22 324.408 24.536 324.12 23.624C323.616 24.56 322.812 25.256 321.708 25.712C320.628 26.144 319.476 26.36 318.252 26.36C316.404 26.36 314.928 25.94 313.824 25.1C312.744 24.236 312.204 23 312.204 21.392C312.204 20.096 312.588 19.028 313.356 18.188C314.148 17.324 315.384 16.724 317.064 16.388L323.292 15.092V14.588ZM318.252 20.816C318.252 21.344 318.444 21.74 318.828 22.004C319.212 22.268 319.668 22.4 320.196 22.4C321.012 22.4 321.732 22.16 322.356 21.68C322.98 21.176 323.292 20.396 323.292 19.34V18.332L320.376 18.944C319.656 19.088 319.116 19.304 318.756 19.592C318.42 19.856 318.252 20.264 318.252 20.816ZM336.616 5.912C335.368 5.912 334.456 5.684 333.88 5.228C333.328 4.748 333.052 4.004 333.052 2.996C333.052 1.964 333.328 1.22 333.88 0.763999C334.456 0.283999 335.368 0.0439994 336.616 0.0439994C337.84 0.0439994 338.74 0.283999 339.316 0.763999C339.892 1.22 340.18 1.964 340.18 2.996C340.18 4.004 339.892 4.748 339.316 5.228C338.74 5.684 337.84 5.912 336.616 5.912ZM339.676 8V26H333.556V8H339.676ZM349.54 0.368V19.88C349.54 20.672 349.672 21.236 349.936 21.572C350.2 21.908 350.644 22.076 351.268 22.076C351.628 22.076 351.928 22.052 352.168 22.004C352.408 21.956 352.696 21.884 353.032 21.788L352.636 25.46C352.204 25.724 351.64 25.94 350.944 26.108C350.248 26.276 349.564 26.36 348.892 26.36C346.972 26.36 345.58 25.916 344.716 25.028C343.852 24.14 343.42 22.688 343.42 20.672V0.368H349.54ZM362.29 26.36C360.49 26.36 358.822 26.072 357.286 25.496C355.75 24.896 354.466 24.044 353.434 22.94L356.314 19.556C356.914 20.324 357.706 20.972 358.69 21.5C359.698 22.004 360.814 22.256 362.038 22.256C362.782 22.256 363.394 22.148 363.874 21.932C364.354 21.716 364.594 21.38 364.594 20.924C364.594 20.612 364.474 20.348 364.234 20.132C363.994 19.916 363.514 19.736 362.794 19.592L360.274 19.088C358.018 18.632 356.41 17.96 355.45 17.072C354.514 16.16 354.046 14.972 354.046 13.508C354.046 12.524 354.346 11.588 354.946 10.7C355.546 9.812 356.47 9.08 357.718 8.504C358.966 7.928 360.562 7.64 362.506 7.64C366.226 7.64 368.938 8.672 370.642 10.736L367.726 14.048C367.15 13.328 366.406 12.764 365.494 12.356C364.582 11.948 363.67 11.744 362.758 11.744C361.006 11.744 360.13 12.188 360.13 13.076C360.13 13.388 360.274 13.664 360.562 13.904C360.874 14.144 361.438 14.336 362.254 14.48L365.53 15.128C367.378 15.488 368.71 16.112 369.526 17C370.342 17.864 370.75 18.92 370.75 20.168C370.75 21.92 370.042 23.396 368.626 24.596C367.234 25.772 365.122 26.36 362.29 26.36Z" fill="#FFA4A4"/>
</svg>
